<svg width="93" height="126" viewBox="0 0 93 126" fill="none" xmlns="http://www.w3.org/2000/svg">
<mask id="mask0" mask-type="alpha" maskUnits="userSpaceOnUse" x="7" y="5" width="74" height="83">
<path d="M45.7731 6L7.99999 27.6517V70.955L36.0462 87.0311H45.7731H55.5L75.617 75.5L80 65L78 32.5L75 22.7529L45.7731 6Z" fill="url(#paint0_radial)"/>
<path d="M75 22.7529L78 32.5L80 65L75.617 75.5M75 22.7529L45.7731 6L7.99999 27.6517V70.955L36.0462 87.0311M75 22.7529L75.617 75.5M75.617 75.5L55.5 87.0311M55.5 87.0311H45.7731H36.0462M55.5 87.0311H36.0462" stroke="white" stroke-width="0.1"/>
</mask>
<g mask="url(#mask0)">
<mask id="path-3-outside-1" maskUnits="userSpaceOnUse" x="-4" y="-6" width="99" height="110" fill="black">
<rect fill="white" x="-4" y="-6" width="99" height="110"/>
<path d="M34.6967 5.79999C34.6967 7.21827 34.9761 8.62266 35.519 9.93297C35.6955 10.359 35.8988 10.7723 36.1272 11.1707L17.1762 22.0295C16.7021 21.2025 16.1195 20.4401 15.4424 19.7633C14.4392 18.7604 13.2483 17.9649 11.9376 17.4221C10.6268 16.8794 9.22203 16.6 7.80331 16.6C6.38461 16.6 4.97979 16.8794 3.66907 17.4221C2.35835 17.9649 1.1674 18.7604 0.16422 19.7633C-0.838962 20.7661 -1.63473 21.9567 -2.17765 23.267C-2.72057 24.5773 -3 25.9817 -3 27.4C-3 28.8183 -2.72057 30.2227 -2.17765 31.533C-1.63473 32.8433 -0.838962 34.0339 0.16422 35.0367C1.1674 36.0396 2.35835 36.8351 3.66907 37.3779C4.97979 37.9206 6.38461 38.2 7.80331 38.2V59.7999C6.38461 59.7999 4.97979 60.0793 3.66907 60.622C2.35835 61.1648 1.1674 61.9603 0.16422 62.9632C-0.838962 63.966 -1.63473 65.1566 -2.17765 66.4669C-2.72057 67.7773 -3 69.1816 -3 70.5999C-3 72.0182 -2.72057 73.4226 -2.17765 74.7329C-1.63473 76.0432 -0.838962 77.2338 0.16422 78.2367C1.1674 79.2395 2.35835 80.0351 3.66907 80.5778C4.97979 81.1206 6.38461 81.3999 7.80331 81.3999C9.22203 81.3999 10.6268 81.1206 11.9376 80.5778C13.2483 80.0351 14.4392 79.2395 15.4424 78.2367C16.1194 77.5599 16.702 76.7976 17.1761 75.9707L36.1271 86.8295C35.8987 87.2278 35.6955 87.6411 35.519 88.067C34.9761 89.3774 34.6967 90.7817 34.6967 92.2C34.6967 93.6183 34.9761 95.0227 35.519 96.333C36.0619 97.6433 36.8577 98.8339 37.8609 99.8368C38.8641 100.84 40.055 101.635 41.3657 102.178C42.6765 102.721 44.0813 103 45.5 103C46.9187 103 48.3235 102.721 49.6342 102.178C50.945 101.635 52.1359 100.84 53.1391 99.8368C54.1423 98.8339 54.938 97.6433 55.481 96.333C56.0239 95.0227 56.3033 93.6183 56.3033 92.2C56.3033 90.7817 56.0239 89.3774 55.481 88.067C55.3045 87.6411 55.1013 87.2278 54.8729 86.8295L73.8239 75.9707C74.2949 76.7923 74.876 77.5553 75.5576 78.2367C77.5836 80.2621 80.3315 81.3999 83.1967 81.3999C86.0619 81.3999 88.8098 80.2621 90.8358 78.2367C92.8618 76.2113 94 73.4642 94 70.5999C94 67.7356 92.8618 64.9886 90.8358 62.9632C88.8098 60.9378 86.0619 59.7999 83.1967 59.7999V38.2C86.0619 38.2 88.8098 37.0621 90.8358 35.0367C92.8618 33.0114 94 30.2643 94 27.4C94 24.5357 92.8618 21.7886 90.8358 19.7633C88.8098 17.7379 86.0619 16.6 83.1967 16.6C80.3315 16.6 77.5836 17.7379 75.5576 19.7633C74.876 20.4447 74.2948 21.2077 73.8237 22.0295L54.8728 11.1707C55.1012 10.7723 55.3044 10.359 55.481 9.93297C56.0239 8.62266 56.3033 7.21827 56.3033 5.79999C56.3033 4.38172 56.0239 2.97733 55.481 1.66702C54.938 0.356699 54.1423 -0.833883 53.1391 -1.83676C52.1359 -2.83963 50.945 -3.63515 49.6342 -4.1779C48.3235 -4.72065 46.9187 -5 45.5 -5C44.0813 -5 42.6765 -4.72065 41.3657 -4.1779C40.055 -3.63515 38.8641 -2.83963 37.8609 -1.83676C36.8577 -0.833883 36.0619 0.356699 35.519 1.66702C34.9761 2.97733 34.6967 4.38172 34.6967 5.79999Z"/>
</mask>
<path d="M34.6967 5.79999C34.6967 7.21827 34.9761 8.62266 35.519 9.93297C35.6955 10.359 35.8988 10.7723 36.1272 11.1707L17.1762 22.0295C16.7021 21.2025 16.1195 20.4401 15.4424 19.7633C14.4392 18.7604 13.2483 17.9649 11.9376 17.4221C10.6268 16.8794 9.22203 16.6 7.80331 16.6C6.38461 16.6 4.97979 16.8794 3.66907 17.4221C2.35835 17.9649 1.1674 18.7604 0.16422 19.7633C-0.838962 20.7661 -1.63473 21.9567 -2.17765 23.267C-2.72057 24.5773 -3 25.9817 -3 27.4C-3 28.8183 -2.72057 30.2227 -2.17765 31.533C-1.63473 32.8433 -0.838962 34.0339 0.16422 35.0367C1.1674 36.0396 2.35835 36.8351 3.66907 37.3779C4.97979 37.9206 6.38461 38.2 7.80331 38.2V59.7999C6.38461 59.7999 4.97979 60.0793 3.66907 60.622C2.35835 61.1648 1.1674 61.9603 0.16422 62.9632C-0.838962 63.966 -1.63473 65.1566 -2.17765 66.4669C-2.72057 67.7773 -3 69.1816 -3 70.5999C-3 72.0182 -2.72057 73.4226 -2.17765 74.7329C-1.63473 76.0432 -0.838962 77.2338 0.16422 78.2367C1.1674 79.2395 2.35835 80.0351 3.66907 80.5778C4.97979 81.1206 6.38461 81.3999 7.80331 81.3999C9.22203 81.3999 10.6268 81.1206 11.9376 80.5778C13.2483 80.0351 14.4392 79.2395 15.4424 78.2367C16.1194 77.5599 16.702 76.7976 17.1761 75.9707L36.1271 86.8295C35.8987 87.2278 35.6955 87.6411 35.519 88.067C34.9761 89.3774 34.6967 90.7817 34.6967 92.2C34.6967 93.6183 34.9761 95.0227 35.519 96.333C36.0619 97.6433 36.8577 98.8339 37.8609 99.8368C38.8641 100.84 40.055 101.635 41.3657 102.178C42.6765 102.721 44.0813 103 45.5 103C46.9187 103 48.3235 102.721 49.6342 102.178C50.945 101.635 52.1359 100.84 53.1391 99.8368C54.1423 98.8339 54.938 97.6433 55.481 96.333C56.0239 95.0227 56.3033 93.6183 56.3033 92.2C56.3033 90.7817 56.0239 89.3774 55.481 88.067C55.3045 87.6411 55.1013 87.2278 54.8729 86.8295L73.8239 75.9707C74.2949 76.7923 74.876 77.5553 75.5576 78.2367C77.5836 80.2621 80.3315 81.3999 83.1967 81.3999C86.0619 81.3999 88.8098 80.2621 90.8358 78.2367C92.8618 76.2113 94 73.4642 94 70.5999C94 67.7356 92.8618 64.9886 90.8358 62.9632C88.8098 60.9378 86.0619 59.7999 83.1967 59.7999V38.2C86.0619 38.2 88.8098 37.0621 90.8358 35.0367C92.8618 33.0114 94 30.2643 94 27.4C94 24.5357 92.8618 21.7886 90.8358 19.7633C88.8098 17.7379 86.0619 16.6 83.1967 16.6C80.3315 16.6 77.5836 17.7379 75.5576 19.7633C74.876 20.4447 74.2948 21.2077 73.8237 22.0295L54.8728 11.1707C55.1012 10.7723 55.3044 10.359 55.481 9.93297C56.0239 8.62266 56.3033 7.21827 56.3033 5.79999C56.3033 4.38172 56.0239 2.97733 55.481 1.66702C54.938 0.356699 54.1423 -0.833883 53.1391 -1.83676C52.1359 -2.83963 50.945 -3.63515 49.6342 -4.1779C48.3235 -4.72065 46.9187 -5 45.5 -5C44.0813 -5 42.6765 -4.72065 41.3657 -4.1779C40.055 -3.63515 38.8641 -2.83963 37.8609 -1.83676C36.8577 -0.833883 36.0619 0.356699 35.519 1.66702C34.9761 2.97733 34.6967 4.38172 34.6967 5.79999Z" fill="url(#paint1_radial)"/>
<path d="M35.519 9.93297L36.4429 9.55019L36.4429 9.55019L35.519 9.93297ZM36.1272 11.1707L36.6243 12.0384L37.4922 11.541L36.9947 10.6733L36.1272 11.1707ZM17.1762 22.0295L16.3087 22.5269L16.806 23.3942L17.6734 22.8971L17.1762 22.0295ZM15.4424 19.7633L16.1494 19.056L16.1494 19.056L15.4424 19.7633ZM3.66907 37.3779L4.05165 36.454L4.05165 36.454L3.66907 37.3779ZM7.80331 38.2H8.80331V37.2H7.80331V38.2ZM7.80331 59.7999V60.7999H8.80331V59.7999H7.80331ZM3.66907 60.622L3.28649 59.6981L3.28648 59.6981L3.66907 60.622ZM0.16422 62.9632L0.871217 63.6704L0.871219 63.6704L0.16422 62.9632ZM0.16422 78.2367L-0.542778 78.9439L-0.542776 78.9439L0.16422 78.2367ZM3.66907 80.5778L4.05165 79.6539L4.05165 79.6539L3.66907 80.5778ZM11.9376 80.5778L11.555 79.6539L11.555 79.6539L11.9376 80.5778ZM15.4424 78.2367L14.7354 77.5294L14.7354 77.5294L15.4424 78.2367ZM17.1761 75.9707L17.6733 75.103L16.8058 74.606L16.3086 75.4733L17.1761 75.9707ZM36.1271 86.8295L36.9946 87.3269L37.4921 86.4591L36.6242 85.9618L36.1271 86.8295ZM35.519 88.067L36.4429 88.4498L36.4429 88.4498L35.519 88.067ZM37.8609 99.8368L38.5679 99.1295L38.5679 99.1295L37.8609 99.8368ZM41.3657 102.178L40.9832 103.102L40.9832 103.102L41.3657 102.178ZM49.6342 102.178L50.0168 103.102L50.0168 103.102L49.6342 102.178ZM53.1391 99.8368L52.4321 99.1295L52.4321 99.1295L53.1391 99.8368ZM55.481 88.067L56.4048 87.6843L56.4048 87.6843L55.481 88.067ZM54.8729 86.8295L54.3757 85.9618L53.5078 86.4591L54.0054 87.3269L54.8729 86.8295ZM73.8239 75.9707L74.6914 75.4733L74.1941 74.606L73.3267 75.103L73.8239 75.9707ZM75.5576 78.2367L74.8506 78.9439L74.8506 78.9439L75.5576 78.2367ZM90.8358 78.2367L91.5428 78.9439L91.5428 78.9439L90.8358 78.2367ZM90.8358 62.9632L91.5428 62.256L91.5428 62.256L90.8358 62.9632ZM83.1967 59.7999H82.1967V60.7999H83.1967V59.7999ZM83.1967 38.2V37.2H82.1967V38.2H83.1967ZM90.8358 35.0367L91.5428 35.744L91.5428 35.744L90.8358 35.0367ZM90.8358 19.7633L91.5428 19.056L91.5428 19.056L90.8358 19.7633ZM75.5576 19.7633L74.8506 19.056L74.8506 19.056L75.5576 19.7633ZM73.8237 22.0295L73.3266 22.8971L74.194 23.3942L74.6913 22.5268L73.8237 22.0295ZM54.8728 11.1707L54.0053 10.6733L53.5077 11.5411L54.3756 12.0384L54.8728 11.1707ZM55.481 9.93297L56.4048 10.3158L56.4048 10.3158L55.481 9.93297ZM55.481 1.66702L56.4048 1.28423L56.4048 1.28423L55.481 1.66702ZM53.1391 -1.83676L53.8461 -2.54397L53.8461 -2.54397L53.1391 -1.83676ZM49.6342 -4.1779L49.2517 -3.25398L49.2517 -3.25398L49.6342 -4.1779ZM41.3657 -4.1779L41.7483 -3.25398L41.7483 -3.25398L41.3657 -4.1779ZM37.8609 -1.83676L37.1539 -2.54397L37.1539 -2.54397L37.8609 -1.83676ZM35.519 1.66702L34.5952 1.28423L34.5952 1.28423L35.519 1.66702ZM36.4429 9.55019C35.9502 8.36122 35.6967 7.08691 35.6967 5.79999H33.6967C33.6967 7.34963 34.002 8.88409 34.5952 10.3158L36.4429 9.55019ZM36.9947 10.6733C36.7874 10.3118 36.603 9.93675 36.4429 9.55019L34.5952 10.3158C34.788 10.7812 35.0101 11.2329 35.2597 11.6681L36.9947 10.6733ZM35.63 10.303L16.6791 21.1618L17.6734 22.8971L36.6243 12.0384L35.63 10.303ZM14.7354 20.4705C15.3498 21.0847 15.8785 21.7765 16.3087 22.5269L18.0438 21.5321C17.5257 20.6285 16.8892 19.7956 16.1494 19.056L14.7354 20.4705ZM11.555 18.346C12.7444 18.8385 13.8251 19.5604 14.7354 20.4705L16.1494 19.056C15.0534 17.9603 13.7522 17.0912 12.3201 16.4982L11.555 18.346ZM7.80331 17.6C9.09075 17.6 10.3656 17.8535 11.555 18.346L12.3201 16.4982C10.8881 15.9052 9.35331 15.6 7.80331 15.6V17.6ZM4.05165 18.346C5.24107 17.8535 6.51588 17.6 7.80331 17.6V15.6C6.25333 15.6 4.71851 15.9052 3.28649 16.4982L4.05165 18.346ZM0.871218 20.4705C1.78153 19.5604 2.86224 18.8385 4.05165 18.346L3.28649 16.4982C1.85446 17.0912 0.553277 17.9603 -0.542777 19.056L0.871218 20.4705ZM-1.25381 23.6498C-0.761171 22.4608 -0.0390908 21.3805 0.871218 20.4705L-0.542777 19.056C-1.63883 20.1518 -2.50829 21.4526 -3.10149 22.8842L-1.25381 23.6498ZM-2 27.4C-2 26.1131 -1.74645 24.8388 -1.25381 23.6498L-3.10149 22.8842C-3.69468 24.3159 -4 25.8504 -4 27.4H-2ZM-1.25381 31.1502C-1.74645 29.9612 -2 28.6869 -2 27.4H-4C-4 28.9496 -3.69468 30.4841 -3.10149 31.9158L-1.25381 31.1502ZM0.871218 34.3295C-0.0390908 33.4195 -0.761171 32.3392 -1.25381 31.1502L-3.10149 31.9158C-2.50829 33.3474 -1.63883 34.6482 -0.542777 35.744L0.871218 34.3295ZM4.05165 36.454C2.86224 35.9615 1.78153 35.2396 0.871218 34.3295L-0.542777 35.744C0.553277 36.8397 1.85446 37.7088 3.28649 38.3018L4.05165 36.454ZM7.80331 37.2C6.51588 37.2 5.24107 36.9465 4.05165 36.454L3.28648 38.3018C4.71851 38.8948 6.25333 39.2 7.80331 39.2V37.2ZM6.80331 38.2V59.7999H8.80331V38.2H6.80331ZM4.05165 61.5459C5.24107 61.0534 6.51588 60.7999 7.80331 60.7999V58.7999C6.25333 58.7999 4.71851 59.1051 3.28649 59.6981L4.05165 61.5459ZM0.871219 63.6704C1.78153 62.7604 2.86224 62.0385 4.05165 61.5459L3.28648 59.6981C1.85446 60.2911 0.553278 61.1602 -0.542778 62.256L0.871219 63.6704ZM-1.25381 66.8497C-0.76117 65.6608 -0.0390909 64.5804 0.871217 63.6704L-0.542776 62.256C-1.63883 63.3517 -2.50829 64.6525 -3.10149 66.0842L-1.25381 66.8497ZM-2 70.5999C-2 69.313 -1.74645 68.0387 -1.25381 66.8497L-3.10149 66.0842C-3.69468 67.5158 -4 69.0503 -4 70.5999H-2ZM-1.25381 74.3501C-1.74645 73.1611 -2 71.8868 -2 70.5999H-4C-4 72.1496 -3.69468 73.684 -3.10149 75.1157L-1.25381 74.3501ZM0.871219 77.5294C-0.0390918 76.6194 -0.761171 75.5391 -1.25381 74.3501L-3.10149 75.1157C-2.50829 76.5473 -1.63883 77.8482 -0.542778 78.9439L0.871219 77.5294ZM4.05165 79.6539C2.86224 79.1614 1.78153 78.4395 0.871217 77.5294L-0.542776 78.9439C0.553277 80.0396 1.85446 80.9087 3.28649 81.5017L4.05165 79.6539ZM7.80331 80.3999C6.51588 80.3999 5.24107 80.1464 4.05165 79.6539L3.28648 81.5017C4.7185 82.0947 6.25333 82.3999 7.80331 82.3999V80.3999ZM11.555 79.6539C10.3656 80.1464 9.09075 80.3999 7.80331 80.3999V82.3999C9.35331 82.3999 10.8881 82.0947 12.3202 81.5017L11.555 79.6539ZM14.7354 77.5294C13.8251 78.4395 12.7444 79.1614 11.555 79.6539L12.3201 81.5017C13.7522 80.9087 15.0534 80.0396 16.1494 78.9439L14.7354 77.5294ZM16.3086 75.4733C15.8784 76.2236 15.3498 76.9153 14.7354 77.5294L16.1494 78.9439C16.8891 78.2044 17.5256 77.3715 18.0436 76.4681L16.3086 75.4733ZM16.6789 76.8383L35.6299 87.6971L36.6242 85.9618L17.6733 75.103L16.6789 76.8383ZM36.4429 88.4498C36.603 88.0633 36.7874 87.6883 36.9946 87.3269L35.2596 86.3321C35.01 86.7673 34.788 87.2189 34.5952 87.6843L36.4429 88.4498ZM35.6967 92.2C35.6967 90.9131 35.9502 89.6388 36.4429 88.4498L34.5952 87.6843C34.002 89.1159 33.6967 90.6504 33.6967 92.2H35.6967ZM36.4429 95.9502C35.9502 94.7612 35.6967 93.4869 35.6967 92.2H33.6967C33.6967 93.7497 34.002 95.2841 34.5952 96.7158L36.4429 95.9502ZM38.5679 99.1295C37.6576 98.2195 36.9355 97.1392 36.4429 95.9502L34.5952 96.7158C35.1884 98.1474 36.0578 99.4483 37.1539 100.544L38.5679 99.1295ZM41.7483 101.254C40.5589 100.761 39.4782 100.04 38.5679 99.1295L37.1539 100.544C38.2499 101.64 39.5511 102.509 40.9832 103.102L41.7483 101.254ZM45.5 102C44.2126 102 42.9377 101.746 41.7483 101.254L40.9832 103.102C42.4152 103.695 43.95 104 45.5 104V102ZM49.2517 101.254C48.0623 101.746 46.7874 102 45.5 102V104C47.05 104 48.5848 103.695 50.0168 103.102L49.2517 101.254ZM52.4321 99.1295C51.5218 100.04 50.4411 100.761 49.2517 101.254L50.0168 103.102C51.4489 102.509 52.75 101.64 53.8461 100.544L52.4321 99.1295ZM54.5571 95.9502C54.0645 97.1392 53.3424 98.2195 52.4321 99.1295L53.8461 100.544C54.9421 99.4483 55.8116 98.1474 56.4048 96.7158L54.5571 95.9502ZM55.3033 92.2C55.3033 93.4869 55.0498 94.7612 54.5571 95.9502L56.4048 96.7158C56.998 95.2841 57.3033 93.7497 57.3033 92.2H55.3033ZM54.5571 88.4498C55.0498 89.6388 55.3033 90.9131 55.3033 92.2H57.3033C57.3033 90.6504 56.998 89.1159 56.4048 87.6843L54.5571 88.4498ZM54.0054 87.3269C54.2126 87.6883 54.397 88.0633 54.5571 88.4498L56.4048 87.6843C56.212 87.2189 55.9899 86.7673 55.7404 86.3321L54.0054 87.3269ZM55.3701 87.6971L74.321 76.8383L73.3267 75.103L54.3757 85.9618L55.3701 87.6971ZM72.9563 76.468C73.4711 77.3658 74.106 78.1995 74.8506 78.9439L76.2646 77.5294C75.6461 76.9111 75.1188 76.2188 74.6914 75.4733L72.9563 76.468ZM74.8506 78.9439C77.0642 81.1568 80.0663 82.3999 83.1967 82.3999V80.3999C80.5966 80.3999 78.103 79.3673 76.2646 77.5294L74.8506 78.9439ZM83.1967 82.3999C86.327 82.3999 89.3292 81.1568 91.5428 78.9439L90.1288 77.5294C88.2903 79.3673 85.7968 80.3999 83.1967 80.3999V82.3999ZM91.5428 78.9439C93.7564 76.731 95 73.7296 95 70.5999H93C93 73.1989 91.9672 75.6916 90.1288 77.5294L91.5428 78.9439ZM95 70.5999C95 67.4703 93.7564 64.4689 91.5428 62.256L90.1288 63.6704C91.9672 65.5083 93 68.0009 93 70.5999H95ZM91.5428 62.256C89.3292 60.0431 86.327 58.7999 83.1967 58.7999V60.7999C85.7968 60.7999 88.2903 61.8325 90.1288 63.6704L91.5428 62.256ZM84.1967 59.7999V38.2H82.1967V59.7999H84.1967ZM83.1967 39.2C86.327 39.2 89.3292 37.9569 91.5428 35.744L90.1288 34.3295C88.2903 36.1674 85.7968 37.2 83.1967 37.2V39.2ZM91.5428 35.744C93.7564 33.5311 95 30.5297 95 27.4H93C93 29.999 91.9672 32.4917 90.1288 34.3295L91.5428 35.744ZM95 27.4C95 24.2703 93.7564 21.2689 91.5428 19.056L90.1288 20.4705C91.9672 22.3083 93 24.801 93 27.4H95ZM91.5428 19.056C89.3292 16.8431 86.327 15.6 83.1967 15.6V17.6C85.7968 17.6 88.2903 18.6326 90.1288 20.4705L91.5428 19.056ZM83.1967 15.6C80.0663 15.6 77.0642 16.8431 74.8506 19.056L76.2646 20.4705C78.103 18.6326 80.5966 17.6 83.1967 17.6V15.6ZM74.8506 19.056C74.1059 19.8005 73.4709 20.6343 72.9562 21.5321L74.6913 22.5268C75.1187 21.7812 75.646 21.0888 76.2646 20.4705L74.8506 19.056ZM74.3209 21.1618L55.37 10.3031L54.3756 12.0384L73.3266 22.8971L74.3209 21.1618ZM54.5571 9.55019C54.397 9.93674 54.2125 10.3118 54.0053 10.6733L55.7403 11.6681C55.9899 11.2329 56.2119 10.7812 56.4048 10.3158L54.5571 9.55019ZM55.3033 5.79999C55.3033 7.08691 55.0498 8.36122 54.5571 9.55019L56.4048 10.3158C56.998 8.88409 57.3033 7.34963 57.3033 5.79999H55.3033ZM54.5571 2.0498C55.0498 3.23877 55.3033 4.51308 55.3033 5.79999H57.3033C57.3033 4.25035 56.998 2.7159 56.4048 1.28423L54.5571 2.0498ZM52.4321 -1.12954C53.3424 -0.219511 54.0645 0.860832 54.5571 2.0498L56.4048 1.28423C55.8116 -0.147434 54.9421 -1.44825 53.8461 -2.54397L52.4321 -1.12954ZM49.2517 -3.25398C50.4411 -2.76146 51.5218 -2.03957 52.4321 -1.12954L53.8461 -2.54397C52.75 -3.63969 51.4489 -4.50884 50.0168 -5.10182L49.2517 -3.25398ZM45.5 -4C46.7874 -4 48.0622 -3.7465 49.2517 -3.25398L50.0168 -5.10182C48.5848 -5.6948 47.05 -6 45.5 -6V-4ZM41.7483 -3.25398C42.9377 -3.7465 44.2126 -4 45.5 -4V-6C43.95 -6 42.4152 -5.6948 40.9832 -5.10182L41.7483 -3.25398ZM38.5679 -1.12954C39.4782 -2.03957 40.5589 -2.76146 41.7483 -3.25398L40.9832 -5.10182C39.5511 -4.50884 38.2499 -3.63969 37.1539 -2.54397L38.5679 -1.12954ZM36.4429 2.0498C36.9355 0.860831 37.6576 -0.219513 38.5679 -1.12954L37.1539 -2.54397C36.0578 -1.44825 35.1884 -0.147432 34.5952 1.28423L36.4429 2.0498ZM35.6967 5.79999C35.6967 4.51308 35.9502 3.23877 36.4429 2.0498L34.5952 1.28423C34.002 2.7159 33.6967 4.25035 33.6967 5.79999H35.6967Z" fill="white" mask="url(#path-3-outside-1)"/>
</g>
<mask id="mask1" mask-type="alpha" maskUnits="userSpaceOnUse" x="7" y="5" width="77" height="88">
<path d="M45.7731 6.00012L7.99999 27.6518V70.9551L45.7731 92.6067L83.5462 70.9551V27.6518L45.7731 6.00012Z" stroke="white" stroke-width="0.1"/>
<path d="M45.7731 6.00012L83.5462 70.9551H7.99999L45.7731 6.00012Z" stroke="white" stroke-width="0.1"/>
<path d="M83.5462 27.6516L45.7731 92.6065L7.99999 27.6516H83.5462Z" stroke="white" stroke-width="0.1"/>
<path d="M45.7731 27.6516L64.6596 38.4774V60.129L45.7731 70.9549L26.8865 60.129V38.4774L45.7731 27.6516Z" stroke="white" stroke-width="0.1"/>
<path d="M64.6596 60.1292L45.7731 6.00012L26.8865 60.1292H64.6596Z" stroke="white" stroke-width="0.1"/>
<path d="M45.7731 92.6066L64.6596 38.4775H26.8865L45.7731 92.6066Z" stroke="white" stroke-width="0.1"/>
<path d="M83.5462 27.6516L7.99999 70.9549" stroke="white" stroke-width="0.1"/>
<path d="M83.5462 70.9549L7.99999 27.6516" stroke="white" stroke-width="0.1"/>
<path d="M45.7731 6.00012V92.6067" stroke="white" stroke-width="0.1"/>
<path d="M83.5462 70.9549L45.7731 27.6516L26.8866 60.129L83.5462 70.9549Z" stroke="white" stroke-width="0.1"/>
<path d="M7.99997 70.9549L45.7731 27.6516L64.6596 60.129L7.99997 70.9549Z" stroke="white" stroke-width="0.1"/>
<path d="M7.99997 27.6516L64.6596 38.4774L45.7731 70.9549L7.99997 27.6516Z" stroke="white" stroke-width="0.1"/>
<path d="M83.5462 27.6516L45.7731 70.9549L26.8866 38.4774L83.5462 27.6516Z" stroke="white" stroke-width="0.1"/>
</mask>
<g mask="url(#mask1)">
<ellipse cx="41.5" cy="46.5" rx="42.5" ry="41.5" fill="#C4C4C4"/>
</g>
<ellipse rx="0.25052" ry="11" transform="matrix(-0.50748 0.861664 0.869174 0.494507 46.5646 49.8721)" fill="white"/>
<mask id="path-20-inside-2" fill="white">
<ellipse rx="0.213458" ry="7.5" transform="matrix(-0.999985 -0.00541259 0.00957713 0.999954 45.9583 47.5009)"/>
</mask>
<path d="M46.7449 47.5052C46.7647 49.5698 46.8063 51.4349 46.8575 52.7801C46.8832 53.4547 46.9108 53.9888 46.9385 54.3491C46.9527 54.5329 46.9654 54.6518 46.9748 54.7156C46.9805 54.7541 46.9802 54.7383 46.9683 54.6971C46.9646 54.6843 46.942 54.6037 46.8864 54.5059C46.8588 54.4576 46.7958 54.3555 46.6824 54.2548C46.563 54.1488 46.3367 54.0024 46.0206 54.0006L46.0398 56.0006C45.7199 55.9988 45.49 55.8507 45.3669 55.7414C45.2498 55.6374 45.1831 55.5304 45.1518 55.4756C45.0888 55.3649 45.0588 55.2648 45.0477 55.2264C45.0209 55.134 45.0057 55.0419 44.9966 54.9804C44.9763 54.8443 44.9594 54.6683 44.9444 54.4725C44.9137 54.0735 44.8849 53.5091 44.8589 52.8262C44.8068 51.4567 44.7648 49.5717 44.7449 47.4944L46.7449 47.5052ZM46.0206 54.0006C45.7045 53.9989 45.481 54.1429 45.3636 54.2477C45.2521 54.3472 45.191 54.4486 45.1644 54.4966C45.1107 54.5938 45.0896 54.6742 45.0862 54.6869C45.075 54.728 45.075 54.7438 45.08 54.7054C45.0882 54.6416 45.0986 54.5229 45.1092 54.3392C45.13 53.9791 45.1475 53.4453 45.1602 52.771C45.1856 51.4262 45.1916 49.5613 45.1718 47.4967L47.1718 47.5075C47.1917 49.5848 47.1858 51.4695 47.1599 52.8387C47.147 53.5213 47.129 54.0855 47.106 54.4842C47.0947 54.6798 47.0811 54.8556 47.0635 54.9916C47.0555 55.053 47.0421 55.1449 47.0171 55.2371C47.0067 55.2754 46.9786 55.3751 46.9177 55.4852C46.8875 55.5397 46.8228 55.646 46.7077 55.7487C46.5867 55.8567 46.3596 56.0023 46.0398 56.0006L46.0206 54.0006ZM45.1718 47.4967C45.152 45.4321 45.1103 43.5669 45.0592 42.2217C45.0335 41.5472 45.0058 41.0131 44.9782 40.6528C44.964 40.4689 44.9513 40.3501 44.9419 40.2863C44.9362 40.2478 44.9365 40.2636 44.9484 40.3048C44.9521 40.3176 44.9747 40.3982 45.0303 40.4959C45.0578 40.5443 45.1209 40.6464 45.2343 40.7471C45.3537 40.8531 45.58 40.9995 45.8961 41.0012L45.8769 39.0013C46.1968 39.0031 46.4267 39.1511 46.5498 39.2605C46.6669 39.3644 46.7336 39.4715 46.7649 39.5263C46.8279 39.637 46.8579 39.737 46.869 39.7755C46.8958 39.8679 46.911 39.96 46.9201 40.0215C46.9404 40.1576 46.9573 40.3336 46.9723 40.5294C47.003 40.9284 47.0318 41.4928 47.0578 42.1757C47.1099 43.5452 47.1519 45.4302 47.1718 47.5075L45.1718 47.4967ZM45.8961 41.0012C46.2122 41.003 46.4357 40.859 46.5531 40.7542C46.6646 40.6547 46.7257 40.5533 46.7523 40.5053C46.806 40.4081 46.8271 40.3277 46.8305 40.3149C46.8417 40.2739 46.8417 40.2581 46.8367 40.2965C46.8285 40.3603 46.8181 40.479 46.8075 40.6627C46.7867 41.0227 46.7692 41.5566 46.7565 42.2309C46.7311 43.5757 46.7251 45.4406 46.7449 47.5052L44.7449 47.4944C44.725 45.4171 44.7309 43.5323 44.7568 42.1632C44.7697 41.4806 44.7877 40.9164 44.8107 40.5177C44.822 40.322 44.8356 40.1462 44.8532 40.0103C44.8612 39.9489 44.8746 39.857 44.8996 39.7648C44.91 39.7265 44.9381 39.6268 44.999 39.5167C45.0292 39.4622 45.0939 39.3559 45.209 39.2532C45.33 39.1452 45.5571 38.9996 45.8769 39.0013L45.8961 41.0012Z" fill="white" mask="url(#path-20-inside-2)"/>
<ellipse rx="0.20712" ry="6" transform="matrix(0.67407 0.738668 0.875146 -0.48386 45.3905 49.6463)" fill="white"/>
<ellipse rx="0.170756" ry="7.49767" transform="matrix(0.537242 -0.843428 -0.851386 -0.52454 7.67961 70.5047)" fill="white"/>
<mask id="path-24-inside-3" fill="white">
<ellipse rx="0.145495" ry="5.11205" transform="matrix(0.999187 0.0403083 0.0253266 -0.999679 8.0362 72.1343)"/>
</mask>
<path d="M7.18239 72.0998C7.21798 70.695 7.23388 69.4267 7.23104 68.513C7.22962 68.0542 7.22348 67.6945 7.21345 67.4547C7.20828 67.331 7.20282 67.2588 7.19919 67.2267C7.19663 67.204 7.19837 67.232 7.21091 67.2818C7.21521 67.2989 7.23603 67.3834 7.28933 67.4851C7.31569 67.5354 7.37571 67.6404 7.48611 67.7456C7.60232 67.8563 7.82388 68.0108 8.14034 68.0236L8.191 66.0242C8.50997 66.0371 8.734 66.1928 8.85266 66.3058C8.96549 66.4133 9.02791 66.5217 9.05663 66.5766C9.11467 66.6873 9.14008 66.7852 9.14882 66.8199C9.17025 66.905 9.18031 66.9853 9.18549 67.0311C9.19733 67.1359 9.20505 67.2653 9.21072 67.4009C9.22237 67.6796 9.2286 68.0696 9.23005 68.5367C9.23297 69.4747 9.21668 70.7629 9.18076 72.1805L7.18239 72.0998ZM8.14034 68.0236C8.45681 68.0363 8.68573 67.9 8.80732 67.7989C8.92281 67.7029 8.98802 67.6029 9.01687 67.5548C9.07522 67.4576 9.10027 67.3749 9.10542 67.3582C9.12045 67.3096 9.12362 67.2818 9.11991 67.3042C9.11466 67.3359 9.10556 67.4075 9.09414 67.5305C9.07199 67.7691 9.04766 68.1275 9.02302 68.5853C8.97393 69.4968 8.9256 70.7639 8.89001 72.1687L6.89164 72.0881C6.92755 70.6706 6.9765 69.3837 7.02689 68.4478C7.05198 67.9818 7.07794 67.5931 7.10368 67.3159C7.1162 67.181 7.13045 67.0525 7.14757 66.9489C7.15506 66.9036 7.16916 66.8242 7.19485 66.7411C7.20533 66.7072 7.23565 66.6115 7.29917 66.5057C7.33061 66.4533 7.3984 66.35 7.51644 66.2519C7.64057 66.1487 7.87202 66.0113 8.191 66.0242L8.14034 68.0236ZM8.89001 72.1687C8.85442 73.5736 8.83852 74.8419 8.84136 75.7556C8.84278 76.2144 8.84892 76.574 8.85895 76.8139C8.86412 76.9376 8.86958 77.0098 8.87321 77.0419C8.87577 77.0646 8.87403 77.0365 8.86149 76.9868C8.85719 76.9697 8.83637 76.8852 8.78307 76.7835C8.75671 76.7332 8.69669 76.6281 8.58629 76.523C8.47008 76.4123 8.24852 76.2578 7.93206 76.245L7.8814 78.2444C7.56243 78.2315 7.3384 78.0758 7.21974 77.9628C7.10691 77.8553 7.04449 77.7468 7.01577 77.692C6.95773 77.5813 6.93232 77.4834 6.92358 77.4487C6.90215 77.3636 6.89209 77.2833 6.88691 77.2375C6.87507 77.1327 6.86735 77.0033 6.86168 76.8677C6.85003 76.589 6.8438 76.199 6.84235 75.7319C6.83943 74.7938 6.85572 73.5057 6.89164 72.0881L8.89001 72.1687ZM7.93206 76.245C7.61559 76.2322 7.38667 76.3686 7.26508 76.4697C7.14959 76.5657 7.08438 76.6657 7.05553 76.7138C6.99718 76.811 6.97213 76.8937 6.96698 76.9103C6.95194 76.959 6.94878 76.9868 6.95249 76.9644C6.95774 76.9326 6.96684 76.8611 6.97826 76.738C7.00041 76.4995 7.02474 76.141 7.04938 75.6833C7.09847 74.7717 7.1468 73.5047 7.18239 72.0998L9.18076 72.1805C9.14485 73.598 9.0959 74.8849 9.04551 75.8208C9.02042 76.2868 8.99446 76.6755 8.96872 76.9527C8.9562 77.0876 8.94195 77.2161 8.92483 77.3197C8.91734 77.365 8.90324 77.4443 8.87755 77.5275C8.86707 77.5614 8.83675 77.6571 8.77323 77.7629C8.74179 77.8153 8.674 77.9185 8.55596 78.0167C8.43183 78.1199 8.20038 78.2572 7.8814 78.2444L7.93206 76.245Z" fill="white" mask="url(#path-24-inside-3)"/>
<ellipse rx="0.141174" ry="4.08964" transform="matrix(-0.64788 -0.761743 -0.891499 0.453023 8.47408 70.6864)" fill="white"/>
<ellipse rx="0.170756" ry="7.49767" transform="matrix(-0.503222 -0.864157 0.871603 -0.490213 8.43658 27.3039)" fill="white"/>
<mask id="path-28-inside-4" fill="white">
<ellipse rx="0.145495" ry="5.11205" transform="matrix(-1 0.000478856 0.0145105 -0.999895 8.01535 28.918)"/>
</mask>
<path d="M8.86986 28.9176C8.89025 27.5124 8.92488 26.2445 8.96411 25.3316C8.98381 24.8733 9.00426 24.5142 9.02384 24.2749C9.03393 24.1515 9.04226 24.0796 9.04717 24.0476C9.05063 24.0251 9.04777 24.053 9.03326 24.1023C9.02829 24.1191 9.00412 24.2027 8.9468 24.3023C8.91846 24.3515 8.85431 24.454 8.73981 24.5547C8.61928 24.6607 8.39175 24.8062 8.07502 24.8064L8.10404 22.8066C7.78481 22.8068 7.55476 22.9534 7.43169 23.0616C7.31467 23.1645 7.24798 23.2704 7.21709 23.324C7.15469 23.4324 7.1254 23.5292 7.11529 23.5635C7.09049 23.6477 7.07723 23.7275 7.07024 23.7731C7.05423 23.8773 7.04137 24.0063 7.0303 24.1416C7.00756 24.4196 6.9858 24.809 6.96574 25.2757C6.92547 26.2129 6.89044 27.5007 6.86986 28.9186L8.86986 28.9176ZM8.07502 24.8064C7.7583 24.8065 7.53499 24.6612 7.41753 24.5553C7.30595 24.4548 7.24477 24.3523 7.21786 24.3031C7.16343 24.2036 7.14169 24.12 7.13721 24.1032C7.12413 24.0539 7.12208 24.026 7.12488 24.0485C7.12887 24.0805 7.13511 24.1524 7.14162 24.2758C7.15425 24.515 7.16428 24.8742 7.17068 25.3325C7.18341 26.2453 7.18124 27.5133 7.16085 28.9184L9.16085 28.9175C9.18142 27.4996 9.18377 26.2118 9.17069 25.2746C9.16418 24.808 9.15373 24.4186 9.13905 24.1405C9.13191 24.0053 9.1228 23.8763 9.10981 23.7721C9.10414 23.7266 9.0932 23.6467 9.07084 23.5626C9.06172 23.5283 9.03524 23.4315 8.97599 23.3232C8.94666 23.2696 8.88304 23.1638 8.769 23.061C8.64908 22.9529 8.42328 22.8064 8.10404 22.8066L8.07502 24.8064ZM7.16085 28.9184C7.14046 30.3236 7.10583 31.5915 7.0666 32.5044C7.0469 32.9627 7.02644 33.3219 7.00687 33.5612C6.99677 33.6845 6.98845 33.7564 6.98354 33.7884C6.98008 33.8109 6.98294 33.783 6.99745 33.7338C7.00242 33.7169 7.02659 33.6333 7.08391 33.5338C7.11224 33.4845 7.1764 33.382 7.2909 33.2813C7.41143 33.1753 7.63896 33.0298 7.95569 33.0296L7.92666 35.0294C8.2459 35.0293 8.47595 34.8826 8.59901 34.7744C8.71604 34.6715 8.78273 34.5656 8.81361 34.512C8.87601 34.4036 8.9053 34.3068 8.91542 34.2725C8.94022 34.1883 8.95347 34.1085 8.96047 34.0629C8.97648 33.9587 8.98934 33.8297 9.00041 33.6945C9.02315 33.4164 9.04491 33.027 9.06496 32.5603C9.10524 31.6231 9.14027 30.3353 9.16085 28.9175L7.16085 28.9184ZM7.95569 33.0296C8.27241 33.0295 8.49572 33.1748 8.61318 33.2807C8.72475 33.3812 8.78594 33.4837 8.81285 33.5329C8.86727 33.6324 8.88902 33.716 8.8935 33.7328C8.90658 33.7821 8.90863 33.81 8.90582 33.7875C8.90184 33.7555 8.8956 33.6836 8.88909 33.5602C8.87646 33.321 8.86642 32.9619 8.86003 32.5035C8.84729 31.5907 8.84947 30.3228 8.86986 28.9176L6.86986 28.9186C6.84928 30.3364 6.84694 31.6242 6.86001 32.5614C6.86652 33.028 6.87698 33.4175 6.89165 33.6955C6.89879 33.8307 6.90791 33.9597 6.9209 34.0639C6.92657 34.1095 6.93751 34.1893 6.95987 34.2734C6.96899 34.3077 6.99547 34.4045 7.05472 34.5128C7.08405 34.5664 7.14767 34.6723 7.26171 34.775C7.38163 34.8831 7.60743 35.0296 7.92666 35.0294L7.95569 33.0296Z" fill="white" mask="url(#path-28-inside-4)"/>
<ellipse rx="0.141174" ry="4.08964" transform="matrix(0.677706 -0.735333 0.872748 0.488172 7.63551 27.4539)" fill="white"/>
<ellipse rx="0.113331" ry="4.97622" transform="matrix(-0.999963 -0.00865864 0.00633111 0.99998 45.7238 6.32841)" fill="white"/>
<mask id="path-32-inside-5" fill="white">
<ellipse rx="0.096565" ry="3.39288" transform="matrix(-0.495305 -0.868719 -0.861197 0.508271 46.5156 5.55455)"/>
</mask>
<path d="M46.9631 6.33938C46.1617 6.81237 45.4451 7.24778 44.9353 7.56855C44.6788 7.72996 44.4828 7.85719 44.3567 7.94352C44.3258 7.96463 44.3013 7.98184 44.2825 7.99537C44.2732 8.00206 44.2661 8.00736 44.2607 8.01137C44.2581 8.01334 44.2561 8.01486 44.2547 8.01594C44.2532 8.01704 44.2526 8.01756 44.2526 8.01753C44.2526 8.01752 44.2537 8.01672 44.2555 8.01519C44.2573 8.0137 44.2605 8.01105 44.2647 8.00736C44.2712 8.00167 44.2896 7.98543 44.3132 7.9609C44.3275 7.94602 44.3896 7.88173 44.4485 7.78114C44.4777 7.73139 44.5352 7.62418 44.566 7.47429C44.5984 7.31652 44.612 7.04629 44.4549 6.77078L42.7325 7.78733C42.5746 7.51037 42.588 7.23832 42.6208 7.07836C42.652 6.92628 42.7107 6.81651 42.7415 6.76385C42.8038 6.65742 42.8719 6.58584 42.8946 6.56224C42.9511 6.50341 43.0072 6.45815 43.0342 6.4367C43.0986 6.38553 43.1767 6.33026 43.2527 6.27825C43.4108 6.16997 43.6325 6.02658 43.8961 5.86073C44.4265 5.52699 45.1602 5.08138 45.9725 4.60195L46.9631 6.33938ZM44.4549 6.77078C44.2978 6.49527 44.0605 6.37311 43.9098 6.3234C43.7666 6.27617 43.6466 6.27378 43.5897 6.2748C43.4746 6.27687 43.3889 6.29983 43.3691 6.30508C43.3365 6.31372 43.3135 6.32191 43.3054 6.32486C43.3002 6.32676 43.2963 6.32824 43.2942 6.3291C43.2919 6.32997 43.2908 6.33046 43.2907 6.33047C43.2907 6.33049 43.2915 6.33017 43.2931 6.32945C43.2947 6.32874 43.297 6.32774 43.3 6.32639C43.3061 6.32366 43.3142 6.31994 43.3245 6.31505C43.3454 6.30518 43.3722 6.29206 43.4056 6.2753C43.5418 6.20679 43.7476 6.09688 44.0127 5.95045C44.5395 5.65944 45.2667 5.24271 46.0681 4.76972L47.0588 6.50716C46.2464 6.98659 45.502 7.41333 44.9539 7.7161C44.6816 7.86656 44.4492 7.99113 44.2783 8.07707C44.1962 8.11835 44.1103 8.15987 44.0346 8.19138C44.0029 8.2046 43.9365 8.23165 43.8582 8.25238C43.8268 8.26069 43.7319 8.28526 43.6102 8.28745C43.55 8.28854 43.4272 8.28583 43.2819 8.23791C43.1292 8.18751 42.8904 8.06428 42.7325 7.78733L44.4549 6.77078ZM46.0681 4.76972C46.8696 4.29674 47.5862 3.86132 48.096 3.54056C48.3525 3.37915 48.5484 3.25191 48.6745 3.16559C48.7054 3.14448 48.7299 3.12727 48.7487 3.11374C48.758 3.10704 48.7652 3.10174 48.7705 3.09774C48.7732 3.09577 48.7752 3.09425 48.7766 3.09316C48.778 3.09206 48.7786 3.09155 48.7786 3.09158C48.7786 3.09159 48.7776 3.09239 48.7757 3.09392C48.7739 3.09541 48.7708 3.09805 48.7665 3.10174C48.76 3.10744 48.7416 3.12368 48.718 3.1482C48.7037 3.16309 48.6416 3.22738 48.5827 3.32797C48.5536 3.37771 48.496 3.48493 48.4652 3.63482C48.4328 3.79259 48.4193 4.06281 48.5764 4.33832L50.2988 3.32178C50.4567 3.59874 50.4433 3.87079 50.4104 4.03075C50.3792 4.18282 50.3206 4.29259 50.2897 4.34526C50.2274 4.45169 50.1594 4.52327 50.1367 4.54686C50.0801 4.6057 50.0241 4.65095 49.9971 4.67241C49.9326 4.72358 49.8545 4.77885 49.7786 4.83086C49.6204 4.93914 49.3987 5.08253 49.1352 5.24837C48.6047 5.58212 47.8711 6.02773 47.0588 6.50716L46.0681 4.76972ZM48.5764 4.33832C48.7334 4.61384 48.9707 4.736 49.1214 4.78571C49.2646 4.83293 49.3846 4.83533 49.4415 4.83431C49.5566 4.83223 49.6423 4.80927 49.6621 4.80403C49.6947 4.79539 49.7177 4.7872 49.7258 4.78425C49.7311 4.78234 49.7349 4.78087 49.7371 4.78001C49.7393 4.77914 49.7405 4.77864 49.7405 4.77864C49.7405 4.77862 49.7398 4.77894 49.7381 4.77965C49.7365 4.78036 49.7342 4.78137 49.7312 4.78272C49.7252 4.78545 49.7171 4.78917 49.7067 4.79406C49.6859 4.80393 49.659 4.81704 49.6257 4.8338C49.4894 4.90232 49.2836 5.01222 49.0185 5.15866C48.4918 5.44966 47.7645 5.8664 46.9631 6.33938L45.9725 4.60195C46.7848 4.12252 47.5292 3.69578 48.0773 3.393C48.3497 3.24254 48.582 3.11798 48.7529 3.03204C48.835 2.99075 48.921 2.94924 48.9966 2.91773C49.0283 2.90451 49.0948 2.87745 49.173 2.85673C49.2044 2.84842 49.2993 2.82384 49.421 2.82165C49.4813 2.82057 49.604 2.82328 49.7493 2.8712C49.9021 2.9216 50.1408 3.04482 50.2988 3.32178L48.5764 4.33832Z" fill="white" mask="url(#path-32-inside-5)"/>
<ellipse rx="0.0936977" ry="2.7143" transform="matrix(-0.30267 0.953095 0.856608 0.515969 45.5466 5.81731)" fill="white"/>
<path fill-rule="evenodd" clip-rule="evenodd" d="M49.8927 7.80127L55.298 9.20051C57.7266 9.82921 60.1322 10.6878 62.4863 11.7857C83.0321 21.3673 92.0473 45.6151 82.5553 65.9689C73.0632 86.3227 48.6928 95.001 28.147 85.4194C25.3657 84.1223 22.7942 82.5557 20.4508 80.7652L16.0092 77.3717L21.5954 77.1772C36.4529 76.6598 50.4861 68.0182 57.1965 53.629C63.7004 39.6827 61.6469 23.9372 53.1802 12.3143L49.8927 7.80127Z" fill="white"/>
<path d="M15.962 123.11C15.8753 123.11 15.7953 123.077 15.722 123.01C15.6553 122.95 15.622 122.877 15.622 122.79C15.622 122.73 15.6353 122.657 15.662 122.57C15.682 122.477 15.692 122.407 15.692 122.36C15.692 121.767 15.6586 120.627 15.592 118.94C15.5253 117.5 15.492 116.363 15.492 115.53C15.492 115.47 15.5153 115.423 15.562 115.39C15.6086 115.35 15.6653 115.33 15.732 115.33C15.812 115.33 15.882 115.36 15.942 115.42C16.002 115.473 16.032 115.54 16.032 115.62C16.032 116.02 16.052 116.62 16.092 117.42C16.1253 118.307 16.142 118.907 16.142 119.22L16.152 119.34V119.46V119.53V119.58C16.172 120.16 16.182 121.027 16.182 122.18V122.44H16.952C17.092 122.54 17.162 122.64 17.162 122.74C17.162 122.813 17.1353 122.88 17.082 122.94C17.0353 122.993 16.9786 123.02 16.912 123.02C16.892 123.02 16.8553 123.013 16.802 123L16.762 122.99C16.722 122.997 16.6586 123 16.572 123H16.402C16.3553 122.993 16.302 122.99 16.242 122.99C16.1753 123.07 16.082 123.11 15.962 123.11ZM20.532 123.15C20.372 123.15 20.2286 123.113 20.102 123.04C19.9753 122.973 19.872 122.873 19.792 122.74C19.632 122.46 19.5286 122.143 19.482 121.79C19.4353 121.483 19.412 121.117 19.412 120.69C19.392 119.97 19.382 119.09 19.382 118.05L19.372 117.28C19.3653 117.24 19.362 117.173 19.362 117.08C19.3486 116.827 19.342 116.673 19.342 116.62C19.402 116.48 19.472 116.41 19.552 116.41C19.632 116.41 19.702 116.47 19.762 116.59C19.8286 116.71 19.862 116.84 19.862 116.98V119.7C19.862 119.967 19.8853 120.32 19.932 120.76C19.9786 121.307 20.002 121.66 20.002 121.82C20.002 122.313 20.212 122.56 20.632 122.56C21.112 122.56 21.352 120.767 21.352 117.18V116.62V116.53C21.3453 116.51 21.342 116.483 21.342 116.45C21.342 116.37 21.3586 116.313 21.392 116.28C21.432 116.24 21.5053 116.22 21.612 116.22C21.6986 116.22 21.7653 116.247 21.812 116.3C21.8653 116.347 21.8986 116.403 21.912 116.47C21.9186 116.51 21.922 116.587 21.922 116.7C21.922 116.807 21.912 116.977 21.892 117.21C21.8653 117.403 21.852 117.57 21.852 117.71C21.852 117.863 21.8453 118 21.832 118.12L21.812 118.54V118.62C21.8186 118.647 21.822 118.677 21.822 118.71C21.822 121.67 21.392 123.15 20.532 123.15ZM27.2552 123.03C27.1752 123.03 27.1152 123.01 27.0752 122.97C27.0352 122.923 27.0052 122.847 26.9852 122.74L26.9252 122.55V122.53V122.5C26.9252 122.28 26.6952 121.53 26.2352 120.25C25.7819 118.97 25.4252 118.023 25.1652 117.41V122.44L25.2052 122.51C25.2119 122.523 25.2252 122.547 25.2452 122.58C25.2652 122.613 25.2752 122.647 25.2752 122.68C25.2752 122.767 25.2452 122.84 25.1852 122.9C25.1252 122.96 25.0519 122.99 24.9652 122.99C24.7519 122.99 24.6452 122.787 24.6452 122.38L24.6352 120.67C24.6286 120.157 24.6252 119.583 24.6252 118.95C24.6252 118.737 24.6352 118.427 24.6552 118.02C24.6752 117.6 24.6852 117.29 24.6852 117.09C24.6852 116.777 24.8052 116.53 25.0452 116.35V116.41C25.0852 116.397 25.1119 116.39 25.1252 116.39C25.2786 116.39 25.4719 116.657 25.7052 117.19C25.8919 117.617 26.0586 118.067 26.2052 118.54C26.3586 119.013 26.5586 119.687 26.8052 120.56L26.9052 120.92C27.0586 121.46 27.1752 121.847 27.2552 122.08C27.3886 120.647 27.4552 118.953 27.4552 117V116.87C27.4486 116.83 27.4452 116.787 27.4452 116.74C27.4452 116.54 27.5252 116.44 27.6852 116.44C27.7786 116.44 27.8486 116.477 27.8952 116.55C27.9486 116.623 27.9752 116.717 27.9752 116.83V117.58C27.9619 118.607 27.9219 119.72 27.8552 120.92C27.7886 122.12 27.7086 122.797 27.6152 122.95C27.4219 123.003 27.3019 123.03 27.2552 123.03ZM32.7304 123.09C32.5771 123.09 32.4637 123.067 32.3904 123.02C32.3171 122.973 32.2804 122.887 32.2804 122.76C32.2804 122.56 32.2471 122.22 32.1804 121.74L32.1404 121.53L31.1504 121.38C31.1104 121.533 31.0537 121.843 30.9804 122.31C30.9404 122.637 30.8771 122.853 30.7904 122.96C30.7437 123.02 30.6771 123.05 30.5904 123.05C30.5104 123.05 30.4371 123.027 30.3704 122.98C30.3037 122.927 30.2704 122.863 30.2704 122.79L30.2904 122.74L30.3004 122.7C30.7404 120.987 31.0737 119.297 31.3004 117.63C31.3004 117.603 31.3037 117.56 31.3104 117.5C31.3171 117.433 31.3237 117.34 31.3304 117.22C31.3504 116.973 31.3704 116.777 31.3904 116.63C31.4171 116.483 31.4571 116.373 31.5104 116.3H31.8504C31.9437 116.3 32.0237 116.323 32.0904 116.37C32.1571 116.41 32.1904 116.47 32.1904 116.55C32.1904 117.057 32.2604 117.81 32.4004 118.81C32.5337 119.837 32.6004 120.557 32.6004 120.97C32.6004 121.01 32.6171 121.113 32.6504 121.28C32.6837 121.433 32.7004 121.533 32.7004 121.58C32.7004 121.627 32.7337 121.827 32.8004 122.18C32.8604 122.5 32.8904 122.707 32.8904 122.8V122.81C32.8904 122.957 32.8371 123.05 32.7304 123.09ZM32.0704 121.17C32.0504 121.07 32.0404 120.947 32.0404 120.8C32.0404 120.2 31.9871 119.433 31.8804 118.5L31.7804 117.46C31.4937 119.027 31.2971 120.21 31.1904 121.01C31.2904 121.077 31.5837 121.13 32.0704 121.17ZM36.9487 123.17C36.802 123.17 36.6687 123.01 36.5487 122.69C36.4087 122.343 36.3053 121.987 36.2387 121.62L36.1687 121.28C35.9753 120.327 35.852 119.783 35.7987 119.65H35.6787C35.6787 119.843 35.6753 120.02 35.6687 120.18V120.73C35.6687 121.623 35.732 122.32 35.8587 122.82L35.7487 123.09H35.4687L35.3387 122.94L35.3487 122.27C35.3487 121.67 35.3187 120.76 35.2587 119.54C35.2053 118.24 35.1787 117.33 35.1787 116.81C35.1787 116.49 35.2887 116.33 35.5087 116.33C35.8687 116.33 36.162 116.423 36.3887 116.61C36.622 116.797 36.7387 117.057 36.7387 117.39V118.09C36.7387 118.19 36.722 118.307 36.6887 118.44C36.6553 118.567 36.6187 118.67 36.5787 118.75L36.3887 119.11L36.2287 119.41L36.2787 119.65L36.4187 120.36C36.512 120.873 36.602 121.29 36.6887 121.61C36.7753 121.93 36.882 122.22 37.0087 122.48L37.0687 122.6C37.1353 122.733 37.1687 122.84 37.1687 122.92C37.1687 122.987 37.1487 123.043 37.1087 123.09C37.0687 123.143 37.0153 123.17 36.9487 123.17ZM35.7187 119.16C35.8653 119.087 35.9887 118.887 36.0887 118.56C36.1953 118.227 36.2487 117.92 36.2487 117.64C36.2487 117.427 36.222 117.227 36.1687 117.04C36.1353 116.933 36.0787 116.853 35.9987 116.8C35.9253 116.74 35.832 116.71 35.7187 116.71L35.6987 116.76L35.6787 116.85L35.6987 118.03C35.712 118.377 35.7187 118.753 35.7187 119.16ZM39.9279 123.05C39.8546 123.05 39.7946 123.02 39.7479 122.96C39.7079 122.893 39.6879 122.813 39.6879 122.72L39.7079 121.04C39.7279 120.227 39.7379 119.597 39.7379 119.15C39.7379 117.597 39.6512 116.407 39.4779 115.58C39.5779 115.427 39.7046 115.35 39.8579 115.35C40.1046 115.35 40.3279 115.407 40.5279 115.52C40.7346 115.627 40.9046 115.773 41.0379 115.96C41.2979 116.347 41.4279 116.78 41.4279 117.26C41.4279 117.76 41.3212 118.207 41.1079 118.6C40.8946 118.993 40.5846 119.3 40.1779 119.52L40.1979 120.53L40.2179 121.06C40.2246 121.173 40.2279 121.337 40.2279 121.55C40.2479 121.997 40.2579 122.36 40.2579 122.64C40.2579 122.767 40.2312 122.867 40.1779 122.94C40.1246 123.013 40.0412 123.05 39.9279 123.05ZM40.1579 119.04C40.4179 118.793 40.6079 118.537 40.7279 118.27C40.8546 117.997 40.9179 117.69 40.9179 117.35V117.34C40.9179 117.187 40.9012 116.993 40.8679 116.76C40.8479 116.68 40.8112 116.6 40.7579 116.52C40.7046 116.44 40.6746 116.393 40.6679 116.38C40.6212 116.313 40.4979 116.21 40.2979 116.07L40.0379 115.88C40.0379 116.22 40.0579 116.747 40.0979 117.46L40.1579 119.04ZM44.9987 123.15C44.8387 123.15 44.6954 123.113 44.5687 123.04C44.4421 122.973 44.3387 122.873 44.2587 122.74C44.0987 122.46 43.9954 122.143 43.9487 121.79C43.9021 121.483 43.8787 121.117 43.8787 120.69C43.8587 119.97 43.8487 119.09 43.8487 118.05L43.8387 117.28C43.8321 117.24 43.8287 117.173 43.8287 117.08C43.8154 116.827 43.8087 116.673 43.8087 116.62C43.8687 116.48 43.9387 116.41 44.0187 116.41C44.0987 116.41 44.1687 116.47 44.2287 116.59C44.2954 116.71 44.3287 116.84 44.3287 116.98V119.7C44.3287 119.967 44.3521 120.32 44.3987 120.76C44.4454 121.307 44.4687 121.66 44.4687 121.82C44.4687 122.313 44.6787 122.56 45.0987 122.56C45.5787 122.56 45.8187 120.767 45.8187 117.18V116.62V116.53C45.8121 116.51 45.8087 116.483 45.8087 116.45C45.8087 116.37 45.8254 116.313 45.8587 116.28C45.8987 116.24 45.9721 116.22 46.0787 116.22C46.1654 116.22 46.2321 116.247 46.2787 116.3C46.3321 116.347 46.3654 116.403 46.3787 116.47C46.3854 116.51 46.3887 116.587 46.3887 116.7C46.3887 116.807 46.3787 116.977 46.3587 117.21C46.3321 117.403 46.3187 117.57 46.3187 117.71C46.3187 117.863 46.3121 118 46.2987 118.12L46.2787 118.54V118.62C46.2854 118.647 46.2887 118.677 46.2887 118.71C46.2887 121.67 45.8587 123.15 44.9987 123.15ZM51.722 123.03C51.642 123.03 51.582 123.01 51.542 122.97C51.502 122.923 51.472 122.847 51.452 122.74L51.392 122.55V122.53V122.5C51.392 122.28 51.162 121.53 50.702 120.25C50.2487 118.97 49.892 118.023 49.632 117.41V122.44L49.672 122.51C49.6787 122.523 49.692 122.547 49.712 122.58C49.732 122.613 49.742 122.647 49.742 122.68C49.742 122.767 49.712 122.84 49.652 122.9C49.592 122.96 49.5187 122.99 49.432 122.99C49.2187 122.99 49.112 122.787 49.112 122.38L49.102 120.67C49.0954 120.157 49.092 119.583 49.092 118.95C49.092 118.737 49.102 118.427 49.122 118.02C49.142 117.6 49.152 117.29 49.152 117.09C49.152 116.777 49.272 116.53 49.512 116.35V116.41C49.552 116.397 49.5787 116.39 49.592 116.39C49.7454 116.39 49.9387 116.657 50.172 117.19C50.3587 117.617 50.5254 118.067 50.672 118.54C50.8254 119.013 51.0254 119.687 51.272 120.56L51.372 120.92C51.5254 121.46 51.642 121.847 51.722 122.08C51.8554 120.647 51.922 118.953 51.922 117V116.87C51.9154 116.83 51.912 116.787 51.912 116.74C51.912 116.54 51.992 116.44 52.152 116.44C52.2454 116.44 52.3154 116.477 52.362 116.55C52.4154 116.623 52.442 116.717 52.442 116.83V117.58C52.4287 118.607 52.3887 119.72 52.322 120.92C52.2554 122.12 52.1754 122.797 52.082 122.95C51.8887 123.003 51.7687 123.03 51.722 123.03ZM57.5872 123.17C57.4339 123.17 57.2705 123.003 57.0972 122.67C56.8372 122.17 56.5805 121.347 56.3272 120.2C56.2539 119.887 56.1939 119.597 56.1472 119.33C55.9072 119.81 55.7872 120.39 55.7872 121.07V122.92C55.7872 123.073 55.7205 123.15 55.5872 123.15C55.4872 123.15 55.4039 123.12 55.3372 123.06C55.2772 123.007 55.2472 122.93 55.2472 122.83V119.8C55.2472 119.507 55.2805 118.967 55.3472 118.18C55.4139 117.493 55.4472 116.953 55.4472 116.56C55.5005 116.433 55.5972 116.37 55.7372 116.37C55.8239 116.37 55.8972 116.4 55.9572 116.46C56.0172 116.52 56.0472 116.593 56.0472 116.68V116.71C55.9605 116.857 55.9172 117.463 55.9172 118.53V118.89L56.2872 118.16C56.5139 117.687 56.7272 117.28 56.9272 116.94C57.1139 116.607 57.2505 116.44 57.3372 116.44C57.4439 116.44 57.5339 116.463 57.6072 116.51C57.6872 116.557 57.7272 116.623 57.7272 116.71L57.4872 117.11C56.9872 117.917 56.7072 118.383 56.6472 118.51C56.6472 118.623 56.6439 118.723 56.6372 118.81L56.6272 119.11C56.6272 119.397 56.7405 119.933 56.9672 120.72C57.2005 121.5 57.3939 122.017 57.5472 122.27L57.6772 122.45C57.8039 122.623 57.8672 122.777 57.8672 122.91C57.8672 122.983 57.8372 123.043 57.7772 123.09C57.7239 123.143 57.6605 123.17 57.5872 123.17ZM63.8995 123.11C63.8128 123.11 63.7328 123.077 63.6595 123.01C63.5928 122.95 63.5595 122.877 63.5595 122.79C63.5595 122.73 63.5728 122.657 63.5995 122.57C63.6195 122.477 63.6295 122.407 63.6295 122.36C63.6295 121.767 63.5961 120.627 63.5295 118.94C63.4628 117.5 63.4295 116.363 63.4295 115.53C63.4295 115.47 63.4528 115.423 63.4995 115.39C63.5461 115.35 63.6028 115.33 63.6695 115.33C63.7495 115.33 63.8195 115.36 63.8795 115.42C63.9395 115.473 63.9695 115.54 63.9695 115.62C63.9695 116.02 63.9895 116.62 64.0295 117.42C64.0628 118.307 64.0795 118.907 64.0795 119.22L64.0895 119.34V119.46V119.53V119.58C64.1095 120.16 64.1195 121.027 64.1195 122.18V122.44H64.8895C65.0295 122.54 65.0995 122.64 65.0995 122.74C65.0995 122.813 65.0728 122.88 65.0195 122.94C64.9728 122.993 64.9161 123.02 64.8495 123.02C64.8295 123.02 64.7928 123.013 64.7395 123L64.6995 122.99C64.6595 122.997 64.5961 123 64.5095 123H64.3395C64.2928 122.993 64.2395 122.99 64.1795 122.99C64.1128 123.07 64.0195 123.11 63.8995 123.11ZM69.3695 123.09C69.2161 123.09 69.1028 123.067 69.0295 123.02C68.9561 122.973 68.9195 122.887 68.9195 122.76C68.9195 122.56 68.8861 122.22 68.8195 121.74L68.7795 121.53L67.7895 121.38C67.7495 121.533 67.6928 121.843 67.6195 122.31C67.5795 122.637 67.5161 122.853 67.4295 122.96C67.3828 123.02 67.3161 123.05 67.2295 123.05C67.1495 123.05 67.0761 123.027 67.0095 122.98C66.9428 122.927 66.9095 122.863 66.9095 122.79L66.9295 122.74L66.9395 122.7C67.3795 120.987 67.7128 119.297 67.9395 117.63C67.9395 117.603 67.9428 117.56 67.9495 117.5C67.9561 117.433 67.9628 117.34 67.9695 117.22C67.9895 116.973 68.0095 116.777 68.0295 116.63C68.0561 116.483 68.0961 116.373 68.1495 116.3H68.4895C68.5828 116.3 68.6628 116.323 68.7295 116.37C68.7961 116.41 68.8295 116.47 68.8295 116.55C68.8295 117.057 68.8995 117.81 69.0395 118.81C69.1728 119.837 69.2395 120.557 69.2395 120.97C69.2395 121.01 69.2561 121.113 69.2895 121.28C69.3228 121.433 69.3395 121.533 69.3395 121.58C69.3395 121.627 69.3728 121.827 69.4395 122.18C69.4995 122.5 69.5295 122.707 69.5295 122.8V122.81C69.5295 122.957 69.4761 123.05 69.3695 123.09ZM68.7095 121.17C68.6895 121.07 68.6795 120.947 68.6795 120.8C68.6795 120.2 68.6261 119.433 68.5195 118.5L68.4195 117.46C68.1328 119.027 67.9361 120.21 67.8295 121.01C67.9295 121.077 68.2228 121.13 68.7095 121.17ZM72.1277 123.1C71.9811 123.1 71.8911 123.037 71.8577 122.91C71.8311 122.83 71.8177 122.717 71.8177 122.57C71.8177 122.283 71.8311 121.93 71.8577 121.51C71.8911 121.11 71.9077 120.753 71.9077 120.44C71.9077 120.087 71.9177 119.557 71.9377 118.85L71.9577 117.27C71.9577 117.21 71.9477 117.12 71.9277 117L71.8977 116.75V116.7C71.8977 116.547 71.9211 116.433 71.9677 116.36C72.0144 116.287 72.1011 116.25 72.2277 116.25C72.4011 116.25 72.5911 116.3 72.7977 116.4C73.0044 116.5 73.1544 116.627 73.2477 116.78C73.4411 117.1 73.5377 117.5 73.5377 117.98C73.5377 118.34 73.5077 118.643 73.4477 118.89C73.3877 119.13 73.2844 119.353 73.1377 119.56C73.3177 119.733 73.4377 119.957 73.4977 120.23C73.5644 120.497 73.5977 120.833 73.5977 121.24C73.5977 121.647 73.5277 122 73.3877 122.3C73.2277 122.64 72.9944 122.873 72.6877 123C72.5011 123.067 72.3144 123.1 72.1277 123.1ZM72.4477 119.27C72.7944 119.263 72.9677 118.86 72.9677 118.06C72.9677 117.2 72.8311 116.75 72.5577 116.71C72.4844 116.863 72.4477 117.223 72.4477 117.79V119.27ZM72.3877 122.59C72.6011 122.543 72.7677 122.417 72.8877 122.21C73.0077 122.003 73.0677 121.767 73.0677 121.5C73.0677 121.22 73.0511 120.973 73.0177 120.76C72.9911 120.593 72.9544 120.457 72.9077 120.35C72.8677 120.237 72.8111 120.133 72.7377 120.04C72.6577 119.94 72.5644 119.88 72.4577 119.86C72.4311 120.24 72.4177 120.743 72.4177 121.37C72.4177 121.41 72.4111 121.537 72.3977 121.75L72.3777 122.09C72.3777 122.103 72.3811 122.113 72.3877 122.12V122.14V122.59ZM76.3193 123.14C76.1993 123.12 76.096 123.077 76.0093 123.01C75.9293 122.943 75.8826 122.857 75.8693 122.75L75.9793 122.58C76.0193 122.58 76.0826 122.593 76.1693 122.62C76.2693 122.64 76.346 122.65 76.3993 122.65C76.5193 122.65 76.626 122.597 76.7193 122.49C76.8193 122.383 76.8926 122.243 76.9393 122.07C77.026 121.75 77.0693 121.463 77.0693 121.21C77.0693 120.77 76.9293 120.307 76.6493 119.82L76.5393 119.63C76.4126 119.41 76.306 119.213 76.2193 119.04C76.1326 118.867 76.0593 118.68 75.9993 118.48C75.9193 118.22 75.8793 117.96 75.8793 117.7C75.8793 117.407 75.946 117.1 76.0793 116.78C76.146 116.627 76.2393 116.503 76.3593 116.41C76.486 116.31 76.626 116.26 76.7793 116.26C76.8993 116.26 77.0093 116.3 77.1093 116.38C77.216 116.453 77.2693 116.543 77.2693 116.65C77.2693 116.71 77.246 116.757 77.1993 116.79C77.1526 116.823 77.096 116.84 77.0293 116.84C76.956 116.84 76.886 116.82 76.8193 116.78C76.6726 116.787 76.556 116.917 76.4693 117.17C76.396 117.403 76.3593 117.597 76.3593 117.75C76.3593 117.943 76.3893 118.14 76.4493 118.34C76.5093 118.533 76.586 118.71 76.6793 118.87L76.8993 119.27L77.2493 119.93C77.3426 120.117 77.416 120.333 77.4693 120.58C77.5293 120.827 77.5593 121.077 77.5593 121.33C77.5593 121.737 77.466 122.123 77.2793 122.49C77.186 122.677 77.0526 122.827 76.8793 122.94C76.7126 123.053 76.526 123.11 76.3193 123.11V123.14Z" fill="#061731"/>
<circle cx="84.5" cy="119.5" r="1.5" fill="#061731"/>
<circle cx="8.5" cy="119.5" r="1.4" stroke="#061731" stroke-width="0.2"/>
<circle cx="84.5" cy="71.5" r="2.25" fill="white" stroke="white" stroke-width="0.5"/>
<circle cx="45.5" cy="94.5" r="2.25" stroke="white" stroke-width="0.5"/>
<path d="M43 94.5C43 93.1193 44.1193 92 45.5 92C45.5 92.7764 45.5556 97 45.5 97C44.1193 97 43 95.8807 43 94.5Z" fill="white"/>
<circle cx="84.5" cy="26.5" r="2.25" transform="rotate(-180 84.5 26.5)" stroke="white" stroke-width="0.5"/>
<path d="M87 26.5C87 27.8807 85.8807 29 84.5 29C84.5 28.2236 84.4444 24 84.5 24C85.8807 24 87 25.1193 87 26.5Z" fill="white"/>
<defs>
<radialGradient id="paint0_radial" cx="0" cy="0" r="1" gradientUnits="userSpaceOnUse" gradientTransform="translate(52.1649 33.3855) rotate(98.6541) scale(54.2634 48.2393)">
<stop stop-color="#0B2855"/>
<stop offset="0.743132" stop-color="#051733"/>
</radialGradient>
<radialGradient id="paint1_radial" cx="0" cy="0" r="1" gradientUnits="userSpaceOnUse" gradientTransform="translate(34.5 31.5) rotate(81.2538) scale(72.3412 64.9731)">
<stop stop-color="#0B2855"/>
<stop offset="0.743132" stop-color="#051733"/>
</radialGradient>
</defs>
</svg>
